<svg width="366" height="141" xmlns="http://www.w3.org/2000/svg" xmlns:xlink="http://www.w3.org/1999/xlink" overflow="hidden"><defs><clipPath id="clip0"><path d="M128 86 494 86 494 227 128 227Z" fill-rule="evenodd" clip-rule="evenodd"/></clipPath></defs><g clip-path="url(#clip0)" transform="translate(-128 -86)"><path d="M295.25 224.921C273.687 220.605 258 201.126 258 178.581 258 156.036 273.63 136.728 294.851 132.298 298.33 109.98 317.497 93 339.801 93 347.502 93 355.032 94.9876 361.764 98.7357 368.495 102.484 374.085 107.936 378.135 114.466 384.41 111.343 391.312 109.753 398.329 109.753 417.838 109.753 435.18 122.246 441.968 140.703 452.293 138.488 463.131 140.192 472.315 145.416 481.499 150.641 488.402 159.046 491.767 169.041 495.133 179.035 494.677 189.939 490.512 199.593 486.291 209.304 478.704 217.084 469.121 221.571L468.436 221.854C464.443 223.672 460.108 224.864 455.715 225.319 455.373 225.375 454.974 225.375 454.632 225.432 449.041 225.886 441.511 226 429.475 226L304.263 226C301.24 226 298.159 225.603 295.25 224.921L295.25 224.921Z" fill="#0078D7" fill-rule="evenodd"/><path d="M148.386 169.789C145.58 169.789 142.946 170.355 140.484 171.375 138.021 172.451 135.845 173.866 134.013 175.679 132.123 177.435 130.691 179.587 129.661 182.022 128.573 184.457 128 187.063 128 189.894 128 192.726 128.515 195.331 129.603 197.767 130.634 200.202 132.123 202.298 133.955 204.167 135.788 205.979 137.907 207.395 140.369 208.471 142.831 209.49 145.466 210 148.271 210L209.029 210C212.751 210 216.244 209.32 219.565 207.905 222.829 206.545 225.692 204.62 228.155 202.241 230.56 199.806 232.507 196.917 233.881 193.689 235.313 190.404 236 186.893 236 183.211 236 179.53 235.313 176.019 233.881 172.79 232.507 169.506 230.56 166.674 228.155 164.238 225.692 161.803 222.829 159.877 219.565 158.518 216.244 157.102 212.751 156.423 209.029 156.423 207.368 156.423 205.765 156.536 204.104 156.876 202.672 154.724 201.069 152.798 199.236 151.042 197.404 149.343 195.343 147.871 193.166 146.681 190.99 145.492 188.7 144.586 186.238 143.963 183.775 143.34 181.256 143 178.621 143 174.727 143 171.063 143.68 167.627 145.039 164.134 146.398 161.041 148.267 158.407 150.702 155.716 153.081 153.483 155.913 151.765 159.198 150.047 162.483 148.901 165.994 148.386 169.789Z" fill="#0078D7" fill-rule="evenodd"/><path d="M265.967 100.189C267.327 100.189 268.631 100.469 269.821 100.975 271.068 101.48 272.146 102.209 273.052 103.051 273.959 103.949 274.64 105.015 275.206 106.194 275.717 107.373 276 108.719 276 110.066 276 111.469 275.717 112.76 275.206 113.939 274.696 115.117 273.959 116.184 273.052 117.082 272.146 117.98 271.125 118.709 269.878 119.214 268.688 119.719 267.384 120 266.024 120L236.264 120C234.394 120 232.693 119.607 231.049 118.934 229.462 118.26 228.045 117.306 226.855 116.128 225.664 114.949 224.701 113.546 224.02 111.918 223.34 110.347 223 108.607 223 106.811 223 104.959 223.34 103.276 224.02 101.648 224.701 100.02 225.664 98.6174 226.855 97.4388 228.045 96.2603 229.462 95.3061 231.049 94.6327 232.693 93.9592 234.394 93.6225 236.264 93.6225 237.058 93.6225 237.851 93.6786 238.645 93.847 239.325 92.7807 240.119 91.8265 241.026 90.9847 241.933 90.0868 242.953 89.4133 243.973 88.7959 245.05 88.2347 246.184 87.7857 247.431 87.449 248.621 87.1684 249.868 87 251.116 87 253.043 87 254.857 87.3367 256.557 88.0102 258.258 88.6837 259.788 89.5816 261.092 90.7602 262.396 91.9388 263.473 93.3419 264.323 94.9694 265.173 96.597 265.74 98.3368 265.967 100.189Z" fill="#0078D7" fill-rule="evenodd"/><path d="M239.548 130.6C235.616 130.6 231.912 131.336 228.493 132.808 224.96 134.281 221.94 136.263 219.433 138.811 216.812 141.302 214.761 144.304 213.279 147.701 211.741 151.155 211 154.836 211 158.8 211 162.707 211.741 166.388 213.222 169.842 214.704 173.183 216.698 176.184 219.319 178.789 221.883 181.337 224.903 183.319 228.322 184.792 231.741 186.264 235.445 187 239.32 187L324.279 187C329.464 187 334.364 186.037 338.98 184.055 343.595 182.13 347.584 179.412 351.003 176.071 354.422 172.617 357.1 168.653 359.037 164.066 361.031 159.48 362 154.61 362 149.4 362 144.19 361.031 139.32 359.037 134.79 357.1 130.204 354.422 126.183 351.003 122.842 347.584 119.388 343.595 116.67 338.98 114.745 334.364 112.763 329.464 111.8 324.279 111.8 321.999 111.8 319.72 112.027 317.384 112.48 315.446 109.422 313.167 106.704 310.603 104.325 307.982 101.834 305.19 99.7952 302.113 98.153 299.093 96.4542 295.845 95.2084 292.426 94.3024 288.95 93.453 285.417 93 281.771 93 276.3 93 271.172 93.9626 266.386 95.888 261.485 97.7566 257.212 100.418 253.451 103.816 249.747 107.1 246.67 111.064 244.277 115.707 241.77 120.294 240.231 125.277 239.548 130.6Z" fill="#00BCF2" fill-rule="evenodd"/><path d="M332 168.5C332 184.782 318.558 198 302 198 285.442 198 272 184.782 272 168.5 272 152.218 285.442 139 302 139 318.558 139 332 152.218 332 168.5Z" fill="#0078D7" fill-rule="evenodd"/><path d="M302 131C305.319 131 308.469 131.456 311.563 132.312 314.656 133.167 317.469 134.422 320.169 136.019 322.813 137.559 325.231 139.498 327.425 141.722 329.619 143.946 331.531 146.398 333.106 149.136 334.625 151.816 335.862 154.668 336.706 157.805 337.55 160.941 338 164.135 338 167.5 338 170.865 337.55 174.059 336.706 177.195 335.862 180.332 334.625 183.241 333.106 185.921 331.531 188.602 329.619 191.054 327.425 193.335 325.231 195.502 322.813 197.441 320.169 199.038 317.469 200.578 314.656 201.833 311.563 202.745 308.469 203.601 305.319 204 302 204 298.681 204 295.531 203.601 292.438 202.745 289.344 201.833 286.475 200.578 283.831 199.038 281.188 197.441 278.769 195.502 276.575 193.335 274.381 191.054 272.469 188.602 270.95 185.921 269.375 183.241 268.138 180.332 267.294 177.195 266.45 174.059 266 170.865 266 167.5 266 164.135 266.45 160.941 267.294 157.805 268.138 154.668 269.375 151.816 270.95 149.136 272.469 146.398 274.381 143.946 276.575 141.722 278.769 139.498 281.188 137.559 283.831 136.019 286.475 134.422 289.344 133.167 292.438 132.312 295.531 131.456 298.681 131 302 131ZM323.206 155.409 318.425 150.562 295.25 174.059 285.575 164.249 280.794 169.097 295.25 183.754 323.206 155.409Z" fill="#FFFFFF" fill-rule="evenodd"/></g></svg>