<svg width="32" height="32" xmlns="http://www.w3.org/2000/svg" xmlns:xlink="http://www.w3.org/1999/xlink" overflow="hidden"><defs><clipPath id="clip0"><path d="M273 95 305 95 305 127 273 127Z" fill-rule="evenodd" clip-rule="evenodd"/></clipPath></defs><g clip-path="url(#clip0)" transform="translate(-273 -95)"><path d="M301.196 95 275.804 95C274.255 95 273 96.2555 273 97.8042L273 123.196C273 124.744 274.255 126 275.804 126L301.196 126C302.745 126 304 124.744 304 123.196L304 97.8042C304 96.2555 302.745 95 301.196 95ZM282.593 121.767C282.593 122.218 282.227 122.584 281.777 122.584L278.303 122.584C277.852 122.584 277.487 122.218 277.487 121.767L277.487 107.205C277.487 106.755 277.852 106.389 278.303 106.389L281.777 106.389C282.227 106.389 282.593 106.755 282.593 107.205L282.593 121.767ZM280.04 105.017C278.217 105.017 276.74 103.539 276.74 101.717 276.74 99.894 278.217 98.4165 280.04 98.4165 281.862 98.4165 283.34 99.894 283.34 101.717 283.34 103.539 281.862 105.017 280.04 105.017ZM300.747 121.833C300.747 122.248 300.411 122.584 299.996 122.584L296.269 122.584C295.854 122.584 295.518 122.248 295.518 121.833L295.518 115.003C295.518 113.984 295.817 110.538 292.855 110.538 290.558 110.538 290.092 112.896 289.999 113.955L289.999 121.833C289.999 122.248 289.663 122.584 289.248 122.584L285.643 122.584C285.229 122.584 284.893 122.248 284.893 121.833L284.893 107.14C284.893 106.725 285.229 106.389 285.643 106.389L289.248 106.389C289.663 106.389 289.999 106.725 289.999 107.14L289.999 108.41C290.85 107.132 292.116 106.145 294.812 106.145 300.781 106.145 300.747 111.721 300.747 114.785L300.747 121.833 300.747 121.833Z" fill="#0077B7" fill-rule="evenodd"/></g></svg>